<?xml version="1.0" encoding="UTF-8" standalone="no"?>
<!-- Created with Inkscape (http://www.inkscape.org/) -->

<svg
   width="210mm"
   height="297mm"
   viewBox="0 0 210 297"
   version="1.1"
   id="svg5"
   inkscape:version="1.1.1 (3bf5ae0d25, 2021-09-20)"
   sodipodi:docname="magnifier.svg"
   inkscape:export-filename="C:\RBRi\wetator\lupe_teil_16.png"
   inkscape:export-xdpi="3.1300001"
   inkscape:export-ydpi="3.1300001"
   xmlns:inkscape="http://www.inkscape.org/namespaces/inkscape"
   xmlns:sodipodi="http://sodipodi.sourceforge.net/DTD/sodipodi-0.dtd"
   xmlns="http://www.w3.org/2000/svg"
   xmlns:svg="http://www.w3.org/2000/svg">
  <sodipodi:namedview
     id="namedview7"
     pagecolor="#ffffff"
     bordercolor="#666666"
     borderopacity="1.0"
     inkscape:pageshadow="2"
     inkscape:pageopacity="0.0"
     inkscape:pagecheckerboard="true"
     inkscape:document-units="mm"
     showgrid="false"
     showguides="true"
     inkscape:guide-bbox="true"
     inkscape:zoom="1"
     inkscape:cx="464.5"
     inkscape:cy="477"
     inkscape:window-width="3840"
     inkscape:window-height="2066"
     inkscape:window-x="-11"
     inkscape:window-y="-11"
     inkscape:window-maximized="1"
     inkscape:current-layer="layer4" />
  <defs
     id="defs2" />
  <g
     inkscape:groupmode="layer"
     id="layer4"
     inkscape:label="Ebene 4"
     style="display:inline">
    <rect
       style="display:inline;fill:#acc952;fill-opacity:1;stroke-width:0.233059"
       id="rect34225-0"
       width="7.5"
       height="102.63221"
       x="130.21664"
       y="60.452152" />
    <rect
       style="display:inline;fill:#acc952;fill-opacity:1;stroke-width:0.233059"
       id="rect34225"
       width="7.5"
       height="102.63221"
       x="111.58333"
       y="60.274178" />
    <rect
       style="display:inline;fill:#acc952;fill-opacity:1;stroke-width:0.233059"
       id="rect34225-8"
       width="7.5"
       height="102.63221"
       x="120.89998"
       y="60.452152" />
    <rect
       style="display:inline;fill:#acc952;fill-opacity:1;stroke-width:0.233059"
       id="rect34225-03"
       width="7.5"
       height="102.63221"
       x="102.26665"
       y="60.096207" />
    <rect
       style="display:inline;fill:#abc851;fill-opacity:1;stroke-width:0.233059"
       id="rect34225-3"
       width="7.5"
       height="102.63221"
       x="92.949989"
       y="60.452152" />
    <rect
       style="display:inline;fill:#acc952;fill-opacity:1;stroke-width:0.217532"
       id="rect34225-81"
       width="7.5"
       height="89.412781"
       x="83.633331"
       y="67.976387" />
    <rect
       style="display:inline;fill:#acc952;fill-opacity:1;stroke-width:0.196141"
       id="rect34225-81-7"
       width="7.5"
       height="72.692276"
       x="74.316666"
       y="75.120926" />
    <rect
       style="display:inline;fill:#acc952;fill-opacity:1;stroke-width:0.169695"
       id="rect34225-81-9"
       width="7.5"
       height="54.411045"
       x="65"
       y="84.85936" />
    <rect
       style="display:inline;fill:#00769c;fill-opacity:1;stroke-width:0.180009"
       id="rect34225-0-7"
       width="7.5"
       height="61.226578"
       x="158"
       y="83.449654" />
    <rect
       style="display:inline;fill:#e75013;fill-opacity:1;stroke-width:0.233059"
       id="rect34225-0-9"
       width="7.5"
       height="102.63221"
       x="139.53331"
       y="61.167156" />
    <rect
       style="display:inline;fill:#00769c;fill-opacity:1;stroke-width:0.203935"
       id="rect34225-0-3"
       width="7.5"
       height="78.584694"
       x="148.75"
       y="72.171715" />
  </g>
  <g
     inkscape:groupmode="layer"
     id="layer2"
     inkscape:label="Ebene 2"
     style="display:inline">
    <path
       id="path41946"
       style="fill:#e75013;fill-opacity:1;fill-rule:evenodd;stroke-width:1.06034"
       d="M 435.88477,181.61914 A 240.36425,240.36425 0 0 0 195.51953,421.98242 240.36425,240.36425 0 0 0 435.88477,662.34766 240.36425,240.36425 0 0 0 676.24805,421.98242 240.36425,240.36425 0 0 0 435.88477,181.61914 Z m 0.21484,57.36328 a 188.62301,183.24559 0 0 1 4.7793,0.0586 188.62301,183.24559 0 0 1 4.77539,0.17773 188.62301,183.24559 0 0 1 4.76758,0.29297 188.62301,183.24559 0 0 1 4.76171,0.41211 188.62301,183.24559 0 0 1 4.7461,0.52734 188.62301,183.24559 0 0 1 4.73242,0.64453 188.62301,183.24559 0 0 1 4.71484,0.76172 188.62301,183.24559 0 0 1 4.69336,0.87696 188.62301,183.24559 0 0 1 4.66797,0.99218 188.62301,183.24559 0 0 1 4.64063,1.10547 188.62301,183.24559 0 0 1 4.61132,1.2207 188.62301,183.24559 0 0 1 4.57618,1.33399 188.62301,183.24559 0 0 1 4.54101,1.44531 188.62301,183.24559 0 0 1 4.50196,1.55859 188.62301,183.24559 0 0 1 4.46093,1.66602 188.62301,183.24559 0 0 1 4.41407,1.77734 188.62301,183.24559 0 0 1 4.36718,1.88477 188.62301,183.24559 0 0 1 4.31641,1.99023 188.62301,183.24559 0 0 1 4.26367,2.09766 188.62301,183.24559 0 0 1 4.20703,2.20117 188.62301,183.24559 0 0 1 4.14844,2.30469 188.62301,183.24559 0 0 1 4.08789,2.40625 188.62301,183.24559 0 0 1 4.02344,2.50586 188.62301,183.24559 0 0 1 3.95508,2.60351 188.62301,183.24559 0 0 1 3.88867,2.69922 188.62301,183.24559 0 0 1 3.81445,2.79493 188.62301,183.24559 0 0 1 3.74219,2.88867 188.62301,183.24559 0 0 1 3.66601,2.97851 188.62301,183.24559 0 0 1 3.58594,3.06836 188.62301,183.24559 0 0 1 3.50391,3.15625 188.62301,183.24559 0 0 1 3.42187,3.24024 188.62301,183.24559 0 0 1 3.33594,3.32422 188.62301,183.24559 0 0 1 3.24805,3.40429 188.62301,183.24559 0 0 1 3.1582,3.48438 188.62301,183.24559 0 0 1 3.06641,3.56054 188.62301,183.24559 0 0 1 2.97265,3.63477 188.62301,183.24559 0 0 1 2.87696,3.70703 188.62301,183.24559 0 0 1 2.77929,3.77735 188.62301,183.24559 0 0 1 2.68164,3.84374 188.62301,183.24559 0 0 1 2.57813,3.90821 188.62301,183.24559 0 0 1 2.47656,3.9707 188.62301,183.24559 0 0 1 2.37109,4.0293 188.62301,183.24559 0 0 1 2.26563,4.08789 188.62301,183.24559 0 0 1 2.16016,4.14258 188.62301,183.24559 0 0 1 2.04882,4.19336 188.62301,183.24559 0 0 1 1.94141,4.24218 188.62301,183.24559 0 0 1 1.82812,4.28907 188.62301,183.24559 0 0 1 1.7168,4.33203 188.62301,183.24559 0 0 1 1.60156,4.375 188.62301,183.24559 0 0 1 1.48829,4.41015 188.62301,183.24559 0 0 1 1.37304,4.44727 188.62301,183.24559 0 0 1 1.25586,4.47852 188.62301,183.24559 0 0 1 1.13867,4.50976 188.62301,183.24559 0 0 1 1.02149,4.53516 188.62301,183.24559 0 0 1 0.90234,4.55859 188.62301,183.24559 0 0 1 0.78516,4.58008 188.62301,183.24559 0 0 1 0.66211,4.59765 188.62301,183.24559 0 0 1 0.54492,4.61133 188.62301,183.24559 0 0 1 0.42187,4.625 188.62301,183.24559 0 0 1 0.30274,4.63282 188.62301,183.24559 0 0 1 0.18164,4.63867 188.62301,183.24559 0 0 1 0.0606,4.64258 188.62301,183.24559 0 0 1 -0.52735,13.69336 188.62301,183.24559 0 0 1 -1.57812,13.61718 188.62301,183.24559 0 0 1 -2.62305,13.46485 188.62301,183.24559 0 0 1 -3.65039,13.23632 188.62301,183.24559 0 0 1 -4.66016,12.93555 188.62301,183.24559 0 0 1 -5.64062,12.56055 188.62301,183.24559 0 0 1 -6.58985,12.11523 188.62301,183.24559 0 0 1 -7.50585,11.60352 188.62301,183.24559 0 0 1 -8.375,11.02539 188.62301,183.24559 0 0 1 -9.20118,10.38672 188.62301,183.24559 0 0 1 -9.97461,9.68945 188.62301,183.24559 0 0 1 -10.6914,8.93945 188.62301,183.24559 0 0 1 -11.34961,8.13672 188.62301,183.24559 0 0 1 -11.94336,7.29102 188.62301,183.24559 0 0 1 -12.4707,6.40429 188.62301,183.24559 0 0 1 -12.92969,5.47852 188.62301,183.24559 0 0 1 -13.31445,4.52734 188.62301,183.24559 0 0 1 -13.625,3.54493 188.62301,183.24559 0 0 1 -13.85938,2.54882 188.62301,183.24559 0 0 1 -14.01758,1.53321 188.62301,183.24559 0 0 1 -14.0957,0.51367 188.62301,183.24559 0 0 1 -14.0957,-0.51367 188.62301,183.24559 0 0 1 -14.01758,-1.53321 188.62301,183.24559 0 0 1 -13.85938,-2.54882 188.62301,183.24559 0 0 1 -13.625,-3.54493 188.62301,183.24559 0 0 1 -13.31445,-4.52734 188.62301,183.24559 0 0 1 -12.92773,-5.47852 188.62301,183.24559 0 0 1 -12.47071,-6.40429 188.62301,183.24559 0 0 1 -11.94336,-7.29102 188.62301,183.24559 0 0 1 -11.34961,-8.13672 188.62301,183.24559 0 0 1 -10.6914,-8.93945 188.62301,183.24559 0 0 1 -9.97461,-9.68945 188.62301,183.24559 0 0 1 -9.20117,-10.38672 188.62301,183.24559 0 0 1 -8.37696,-11.02539 188.62301,183.24559 0 0 1 -7.5039,-11.60352 188.62301,183.24559 0 0 1 -6.5918,-12.11523 188.62301,183.24559 0 0 1 -5.64063,-12.56055 188.62301,183.24559 0 0 1 -4.6582,-12.93555 188.62301,183.24559 0 0 1 -3.65039,-13.23632 188.62301,183.24559 0 0 1 -2.62305,-13.46485 188.62301,183.24559 0 0 1 -1.58007,-13.61718 188.62301,183.24559 0 0 1 -0.52735,-13.69336 188.62301,183.24559 0 0 1 0.52735,-13.69336 188.62301,183.24559 0 0 1 1.58007,-13.61719 188.62301,183.24559 0 0 1 2.62305,-13.46485 188.62301,183.24559 0 0 1 3.65039,-13.23632 188.62301,183.24559 0 0 1 4.6582,-12.93555 188.62301,183.24559 0 0 1 5.64063,-12.56055 188.62301,183.24559 0 0 1 6.5918,-12.11523 188.62301,183.24559 0 0 1 7.5039,-11.60352 188.62301,183.24559 0 0 1 8.37696,-11.02539 188.62301,183.24559 0 0 1 9.20117,-10.38672 188.62301,183.24559 0 0 1 9.97461,-9.68945 188.62301,183.24559 0 0 1 10.6914,-8.93945 188.62301,183.24559 0 0 1 11.34961,-8.13672 188.62301,183.24559 0 0 1 11.94336,-7.29102 188.62301,183.24559 0 0 1 12.47071,-6.40234 188.62301,183.24559 0 0 1 12.92773,-5.48047 188.62301,183.24559 0 0 1 13.31445,-4.52539 188.62301,183.24559 0 0 1 13.625,-3.54688 188.62301,183.24559 0 0 1 13.85938,-2.54882 188.62301,183.24559 0 0 1 14.01758,-1.53321 188.62301,183.24559 0 0 1 14.0957,-0.51367 z"
       transform="scale(0.26458333)" />
    <rect
       style="fill:#e75013;fill-opacity:1;fill-rule:evenodd;stroke-width:0.267249"
       id="rect3177"
       width="79.696075"
       height="14.944048"
       x="-173.79318"
       y="150.21193"
       transform="matrix(0.52846118,-0.84895748,0.85823835,0.51325134,0,0)" />
  </g>
</svg>
